# Blender 4.1.1
# www.blender.org
mtllib star.mtl
o Star
v 0.000000 -0.000000 -0.250000
v -0.000000 0.000000 0.250000
v -0.000000 -0.500000 -0.250000
v -0.000000 -0.500000 0.250000
v -0.587785 -0.809017 -0.250000
v -0.587785 -0.809017 0.250000
v -0.475528 -0.154509 -0.250000
v -0.475528 -0.154509 0.250000
v -0.951057 0.309017 -0.250000
v -0.951057 0.309017 0.250000
v -0.293892 0.404509 -0.250000
v -0.293893 0.404509 0.250000
v -0.000000 1.000000 -0.250000
v -0.000000 1.000000 0.250000
v 0.293893 0.404509 -0.250000
v 0.293893 0.404509 0.250000
v 0.951057 0.309017 -0.250000
v 0.951057 0.309017 0.250000
v 0.475528 -0.154509 -0.250000
v 0.475528 -0.154509 0.250000
v 0.587786 -0.809017 -0.250000
v 0.587786 -0.809017 0.250000
vn -0.0000 -0.0000 -1.0000
vn -0.4653 -0.8851 -0.0000
vn 0.4653 -0.8851 -0.0000
vn -0.9856 0.1690 -0.0000
vn -0.6980 -0.7161 -0.0000
vn -0.1438 0.9896 -0.0000
vn -0.8967 0.4426 -0.0000
vn 0.8967 0.4426 -0.0000
vn 0.1438 0.9896 -0.0000
vn 0.6980 -0.7161 -0.0000
vn 0.9856 0.1690 -0.0000
vn -0.0000 -0.0000 1.0000
vt 0.914590 0.262866
vt 0.776393 0.262866
vt 1.000000 0.100406
vt 1.000000 0.425326
vt 0.819098 0.394298
vt 0.690983 0.525731
vt 0.664590 0.344095
vt 0.500000 0.262866
vt 0.664590 0.181636
vt 0.690983 0.000000
vt 0.819098 0.131433
vt 0.138197 0.709274
vt 0.276393 0.525731
vt 0.276393 0.709274
vt 0.829180 0.525731
vt 0.690983 0.701684
vt 0.690983 0.525731
vt 0.414590 0.525731
vt 0.276393 0.709274
vt 0.276393 0.525731
vt 0.414590 0.709274
vt 0.276393 0.885227
vt 0.276393 0.709274
vt 0.967376 0.525731
vt 0.829180 0.701684
vt 0.829180 0.525731
vt 0.138197 0.709274
vt -0.000000 0.885227
vt 0.000000 0.709274
vt 0.276393 0.709274
vt 0.138197 0.885227
vt 0.552786 0.525731
vt 0.414590 0.709274
vt 0.414590 0.525731
vt 0.138197 0.525731
vt -0.000000 0.709274
vt 0.000000 0.525731
vt 0.690983 0.525731
vt 0.552787 0.709274
vt 0.552787 0.525731
vt 0.223607 0.262866
vt 0.085410 0.262866
vt 0.000000 0.100406
vt 0.000000 0.425326
vt 0.180902 0.394298
vt 0.309017 0.525731
vt 0.335410 0.344095
vt 0.500000 0.262866
vt 0.335410 0.181636
vt 0.309017 -0.000000
vt 0.180902 0.131433
vt 0.138197 0.525731
vt 0.829180 0.701684
vt 0.414590 0.885227
vt 0.967376 0.701684
vt 0.138197 0.885227
vt 0.276393 0.885227
vt 0.552786 0.709274
vt 0.690983 0.709274
s 0
usemtl StarMaterial
f 3/1/1 1/2/1 21/3/1
f 1/2/1 3/1/1 5/4/1
f 1/2/1 5/4/1 7/5/1
f 1/2/1 7/5/1 9/6/1
f 1/2/1 9/6/1 11/7/1
f 1/2/1 11/7/1 13/8/1
f 1/2/1 13/8/1 15/9/1
f 1/2/1 15/9/1 17/10/1
f 1/2/1 17/10/1 19/11/1
f 1/2/1 19/11/1 21/3/1
f 3/12/2 22/13/2 4/14/2
f 4/15/3 5/16/3 3/17/3
f 6/18/4 7/19/4 5/20/4
f 8/21/5 9/22/5 7/23/5
f 10/24/6 11/25/6 9/26/6
f 12/27/7 13/28/7 11/29/7
f 14/30/8 15/31/8 13/27/8
f 16/32/9 17/33/9 15/34/9
f 18/35/10 19/36/10 17/37/10
f 20/38/11 21/39/11 19/40/11
f 2/41/12 4/42/12 22/43/12
f 4/42/12 2/41/12 6/44/12
f 6/44/12 2/41/12 8/45/12
f 8/45/12 2/41/12 10/46/12
f 10/46/12 2/41/12 12/47/12
f 12/47/12 2/41/12 14/48/12
f 14/48/12 2/41/12 16/49/12
f 16/49/12 2/41/12 18/50/12
f 18/50/12 2/41/12 20/51/12
f 20/51/12 2/41/12 22/43/12
f 3/12/2 21/52/2 22/13/2
f 4/15/3 6/53/3 5/16/3
f 6/18/4 8/33/4 7/19/4
f 8/21/5 10/54/5 9/22/5
f 10/24/6 12/55/6 11/25/6
f 12/27/7 14/56/7 13/28/7
f 14/30/8 16/57/8 15/31/8
f 16/32/9 18/58/9 17/33/9
f 18/35/10 20/27/10 19/36/10
f 20/38/11 22/59/11 21/39/11
